HIERARCHY
ROOT Hips
{
	OFFSET -0.001795 -0.223333 0.028219
	CHANNELS 6 Xposition Yposition Zposition Zrotation Yrotation Xrotation 
	JOINT LeftUpLeg
	{
		OFFSET 0.069520 -0.091406 -0.006815
		CHANNELS 3 Zrotation Yrotation Xrotation
		JOINT LeftLeg
		{
			OFFSET 0.034277 -0.375199 -0.004496
			CHANNELS 3 Zrotation Yrotation Xrotation
			JOINT LeftFoot
			{
				OFFSET -0.013596 -0.397961 -0.043693
				CHANNELS 3 Zrotation Yrotation Xrotation
				JOINT LeftToe
				{
					OFFSET 0.026358 -0.055791 0.119288
					CHANNELS 3 Zrotation Yrotation Xrotation
					End Site
					{
						OFFSET 0.000000 0.000000 0.000000
					}
				}
			}
		}
	}
	JOINT RightUpLeg
	{
		OFFSET -0.067670 -0.090522 -0.004320
		CHANNELS 3 Zrotation Yrotation Xrotation
		JOINT RightLeg
		{
			OFFSET -0.038290 -0.382569 -0.008850
			CHANNELS 3 Zrotation Yrotation Xrotation
			JOINT RightFoot
			{
				OFFSET 0.015774 -0.398415 -0.042312
				CHANNELS 3 Zrotation Yrotation Xrotation
				JOINT RightToe
				{
					OFFSET -0.025372 -0.048144 0.123348
					CHANNELS 3 Zrotation Yrotation Xrotation
					End Site
					{
						OFFSET 0.000000 0.000000 0.000000
					}
				}
			}
		}
	}
	JOINT Spine
	{
		OFFSET -0.002533 0.108963 -0.026696
		CHANNELS 3 Zrotation Yrotation Xrotation
		JOINT Spine1
		{
			OFFSET 0.005487 0.135180 0.001092
			CHANNELS 3 Zrotation Yrotation Xrotation
			JOINT Spine2
			{
				OFFSET 0.001457 0.052922 0.025425
				CHANNELS 3 Zrotation Yrotation Xrotation
				JOINT Neck
				{
					OFFSET -0.002778 0.213870 -0.042857
					CHANNELS 3 Zrotation Yrotation Xrotation
					JOINT Head
					{
						OFFSET 0.005152 0.064970 0.051349
						CHANNELS 3 Zrotation Yrotation Xrotation
						End Site
						{
							OFFSET 0.000000 0.000000 0.000000
						}
					}
				}
				JOINT LeftShoulder
				{
					OFFSET 0.078845 0.121749 -0.034090
					CHANNELS 3 Zrotation Yrotation Xrotation
					JOINT LeftArm
					{
						OFFSET 0.090977 0.030469 -0.008868
						CHANNELS 3 Zrotation Yrotation Xrotation
						JOINT LeftForeArm
						{
							OFFSET 0.259612 -0.012772 -0.027456
							CHANNELS 3 Zrotation Yrotation Xrotation
							JOINT LeftHand
							{
								OFFSET 0.249234 0.008986 -0.001171
								CHANNELS 3 Zrotation Yrotation Xrotation
								End Site
								{
									OFFSET 0.000000 0.000000 0.000000
								}
							}
						}
					}
				}
				JOINT RightShoulder
				{
					OFFSET -0.081759 0.118833 -0.038615
					CHANNELS 3 Zrotation Yrotation Xrotation
					JOINT RightArm
					{
						OFFSET -0.096012 0.032551 -0.009143
						CHANNELS 3 Zrotation Yrotation Xrotation
						JOINT RightForeArm
						{
							OFFSET -0.253742 -0.013329 -0.021401
							CHANNELS 3 Zrotation Yrotation Xrotation
							JOINT RightHand
							{
								OFFSET -0.255298 0.007772 -0.005559
								CHANNELS 3 Zrotation Yrotation Xrotation
								End Site
								{
									OFFSET 0.000000 0.000000 0.000000
								}
							}
						}
					}
				}
			}
		}
	}
}
MOTION
Frames: 16
Frame Time: 0.050000
0.000000 0.945357 0.000000 -0.353219 4.576535 6.110304 3.462151 -0.242764 -2.079020 3.888753 -0.132793 -3.809587 5.816074 14.867087 15.624249 0.000000 0.000000 0.000000 -1.718918 0.384190 -3.835153 -3.518514 0.124227 -3.771317 4.217485 4.324848 11.292008 0.000000 0.000000 0.000000 5.016340 0.301797 -5.682049 -1.103261 0.583012 -2.437070 -4.891722 3.778072 2.629620 8.706597 -6.618591 -1.643560 0.000000 0.000000 0.000000 -18.312333 1.885484 -4.475063 -50.575376 4.585299 -7.382396 -16.518863 -14.506678 2.360559 0.000000 0.000000 0.000000 17.699367 -8.616929 -4.769281 58.239513 -2.046567 -6.291663 17.071640 18.793633 3.453165 0.000000 0.000000 0.000000 
-0.000855 0.945173 0.000083 -0.447068 4.264459 6.951299 3.631560 -0.280618 -2.589454 3.817774 -0.087658 -4.434009 5.977928 15.107611 15.925937 0.000000 0.000000 0.000000 -1.791004 0.494214 -5.106882 -3.173565 0.131388 -3.247610 4.295952 4.482968 11.210438 0.000000 0.000000 0.000000 5.842546 0.396715 -6.804123 -1.466105 0.718013 -1.606677 -5.901257 4.145917 1.414040 9.506780 -7.392822 -0.994904 0.000000 0.000000 0.000000 -18.160287 2.627457 -4.931574 -49.117877 5.705859 -7.442762 -19.329247 -15.290710 2.807554 0.000000 0.000000 0.000000 17.009507 -9.896771 -5.343647 58.870030 -2.996866 -6.598676 19.152932 18.503708 3.742719 0.000000 0.000000 0.000000 
-0.001712 0.945548 0.000117 -0.140766 3.851019 7.059941 3.321432 -0.274111 -2.586823 3.776369 -0.083343 -4.484400 6.123674 15.316295 16.285228 0.000000 0.000000 0.000000 -1.966282 0.478437 -4.932677 -3.428566 0.106210 -3.853572 4.521437 4.775897 11.409842 0.000000 0.000000 0.000000 5.661066 0.403317 -6.907304 -1.045269 0.578337 -3.482405 -6.464111 3.896120 3.011909 9.365318 -7.313312 -1.090635 0.000000 0.000000 0.000000 -17.795316 2.340091 -4.595310 -48.902998 5.903749 -7.622041 -20.593654 -15.313277 2.988347 0.000000 0.000000 0.000000 17.160927 -8.855590 -4.814237 58.376980 -3.179783 -6.859855 20.612062 20.407542 4.468792 0.000000 0.000000 0.000000 
-0.002512 0.946179 0.000333 -0.153968 3.535027 7.238692 3.734528 -0.285877 -2.686101 3.094567 -0.038355 -4.537330 6.251221 15.493541 16.568454 0.000000 0.000000 0.000000 -1.803242 0.520505 -5.396829 -3.650197 0.149952 -3.453391 4.661625 4.968221 11.497955 0.000000 0.000000 0.000000 5.852878 0.441843 -7.292084 -1.534912 0.768469 -2.618031 -6.457643 3.238415 1.275973 9.485507 -7.585955 -0.191192 0.000000 0.000000 0.000000 -17.650275 3.081543 -4.801836 -48.313973 6.418968 -7.590865 -21.226686 -15.606470 3.143155 0.000000 0.000000 0.000000 15.787887 -9.037346 -4.940990 57.792026 -3.590045 -6.764145 24.523457 20.233970 5.082144 0.000000 0.000000 0.000000 
-0.003515 0.946423 0.000678 -0.132666 3.302776 7.368271 3.666337 -0.284167 -2.679169 3.239638 -0.039096 -4.688641 6.339505 15.621191 16.826474 0.000000 0.000000 0.000000 -1.719605 0.511566 -5.262393 -3.758122 0.117163 -3.986890 4.825487 5.145879 11.724194 0.000000 0.000000 0.000000 5.486603 0.465190 -7.696854 -1.013627 0.542067 -2.793806 -6.930048 2.809059 1.070850 9.418577 -7.455719 -0.429035 0.000000 0.000000 0.000000 -17.490247 3.248032 -4.766278 -46.529677 6.225532 -7.161325 -24.256273 -16.360089 3.722369 0.000000 0.000000 0.000000 14.894823 -9.356906 -5.074565 56.284684 -4.125556 -6.789287 30.629678 21.348187 6.603151 0.000000 0.000000 0.000000 
-0.004344 0.946420 0.001280 -0.369640 2.302894 7.297470 3.889888 -0.275627 -2.597914 3.179416 -0.063377 -4.296897 6.912124 16.331233 17.041365 0.000000 0.000000 0.000000 -1.307285 0.517833 -5.261440 -4.078315 0.124981 -4.104759 5.323577 5.923374 11.837950 0.000000 0.000000 0.000000 5.721856 0.521391 -8.089007 -1.351723 0.681401 -2.648461 -6.808209 2.864773 0.655520 9.759409 -7.966100 0.499334 0.000000 0.000000 0.000000 -17.569279 3.372824 -4.742236 -44.911638 5.671713 -6.648968 -26.474479 -17.714249 4.407944 0.000000 0.000000 0.000000 14.238234 -9.182138 -4.989199 54.398623 -4.726351 -6.791544 36.493432 21.611043 7.886358 0.000000 0.000000 0.000000 
-0.004975 0.945982 0.001922 -0.466293 2.217103 7.096037 3.942013 -0.257984 -2.311984 3.332787 -0.073581 -4.307306 6.980118 16.406716 16.949806 0.000000 0.000000 0.000000 -1.053101 0.488209 -4.906472 -4.273327 0.122683 -4.304404 5.356790 6.037380 11.720894 0.000000 0.000000 0.000000 5.476009 0.549568 -8.469580 -1.350175 0.676486 -2.422791 -7.039021 2.167021 0.382615 10.211429 -8.162494 -0.067194 0.000000 0.000000 0.000000 -17.175291 3.273332 -4.476911 -43.566592 5.061317 -6.208040 -29.789400 -19.409102 5.446995 0.000000 0.000000 0.000000 13.392165 -9.361482 -5.065216 52.707106 -5.084412 -6.690440 42.157375 21.469555 8.990875 0.000000 0.000000 0.000000 
-0.005371 0.945755 0.002301 -0.730517 1.837158 7.038662 3.983747 -0.249974 -2.216317 3.734342 -0.110039 -4.189399 7.227534 16.712862 16.988527 0.000000 0.000000 0.000000 -0.555648 0.505593 -5.051964 -4.651770 0.169642 -4.015708 5.511237 6.340115 11.624419 0.000000 0.000000 0.000000 5.497539 0.584436 -8.784113 -1.485314 0.732812 -2.328996 -7.112875 1.845149 0.222753 10.192722 -8.246219 0.355367 0.000000 0.000000 0.000000 -17.154696 2.972523 -4.225519 -42.402491 4.370818 -5.786730 -32.283567 -20.836259 6.370448 0.000000 0.000000 0.000000 13.176654 -9.260579 -5.054728 50.725763 -5.115744 -6.444851 46.968488 20.533501 9.541449 0.000000 0.000000 0.000000 
-0.005571 0.945513 0.002217 -0.933554 1.637392 6.954519 4.042559 -0.245075 -2.146856 4.004498 -0.136718 -4.085940 7.372604 16.890930 16.959159 0.000000 0.000000 0.000000 -0.274462 0.503814 -5.010851 -4.760063 0.176748 -4.003406 5.610296 6.517529 11.604540 0.000000 0.000000 0.000000 5.308046 0.595166 -8.959167 -1.326974 0.659471 -2.205209 -7.380357 1.375866 -0.174787 10.374331 -8.364008 0.349860 0.000000 0.000000 0.000000 -16.597404 2.407664 -3.753119 -41.825037 3.337618 -5.352319 -34.786163 -21.445847 7.084993 0.000000 0.000000 0.000000 12.457755 -9.262868 -5.019547 49.096373 -5.397053 -6.290870 50.630468 19.561466 9.738568 0.000000 0.000000 0.000000 
-0.005695 0.945419 0.001635 -1.149419 1.046385 7.021149 4.241625 -0.253483 -2.325494 3.949725 -0.159289 -3.746137 7.740782 17.347440 17.038709 0.000000 0.000000 0.000000 0.051093 0.529651 -5.252855 -4.994891 0.194231 -3.941390 5.903183 6.962965 11.695266 0.000000 0.000000 0.000000 5.202322 0.606911 -9.056066 -1.277101 0.633686 -2.182225 -7.494170 0.851820 -0.464253 10.443606 -8.375585 0.300632 0.000000 0.000000 0.000000 -16.329589 2.112024 -3.411838 -41.602275 2.395814 -5.028452 -37.037875 -21.191285 7.501993 0.000000 0.000000 0.000000 12.061963 -9.110889 -4.988129 47.684516 -5.546617 -6.129640 53.619159 18.353469 9.525101 0.000000 0.000000 0.000000 
-0.005724 0.945543 0.000800 -1.333631 0.002888 6.963360 4.273722 -0.233763 -2.106504 4.004586 -0.170930 -3.724602 8.307191 18.045156 17.403252 0.000000 0.000000 0.000000 0.310843 0.548189 -5.433497 -5.241405 0.209030 -3.882858 6.431925 7.747060 11.888185 0.000000 0.000000 0.000000 5.102125 0.613712 -8.991584 -1.313003 0.645454 -2.235817 -7.584406 0.577441 -0.481235 10.380488 -8.330690 0.392497 0.000000 0.000000 0.000000 -15.999550 1.404226 -2.853348 -41.864807 1.550109 -4.830006 -37.965229 -21.160996 7.761169 0.000000 0.000000 0.000000 11.873520 -9.045382 -5.023818 46.912288 -5.827706 -6.123442 55.495061 17.773471 9.376443 0.000000 0.000000 0.000000 
-0.005655 0.945749 0.000063 -1.405064 -0.815207 7.002349 4.277124 -0.224065 -2.037186 3.930443 -0.171868 -3.701447 8.745054 18.579658 17.739626 0.000000 0.000000 0.000000 0.600072 0.580041 -5.732422 -5.740285 0.251776 -3.722847 6.830476 8.334409 12.024379 0.000000 0.000000 0.000000 4.859842 0.594288 -8.756631 -1.004386 0.503750 -2.267307 -7.749291 -0.123909 -0.774358 10.275573 -8.175864 0.275742 0.000000 0.000000 0.000000 -15.872818 0.960906 -2.422304 -42.414314 1.296414 -4.839230 -37.961709 -20.829724 7.739949 0.000000 0.000000 0.000000 11.204281 -8.944651 -4.987134 46.429747 -6.333198 -6.202446 56.589192 16.984971 8.854400 0.000000 0.000000 0.000000 
-0.005365 0.946009 -0.000405 -1.682279 -1.629777 6.985506 4.178128 -0.209146 -1.895558 4.408912 -0.217043 -3.647169 9.206101 19.138294 18.109960 0.000000 0.000000 0.000000 0.858882 0.595212 -5.870059 -5.793072 0.251160 -3.702717 7.290718 8.938884 12.319913 0.000000 0.000000 0.000000 5.020599 0.588442 -8.468022 -1.048693 0.518857 -2.247533 -7.752642 -0.913450 -0.896883 10.176102 -8.020622 0.101263 0.000000 0.000000 0.000000 -15.933422 0.522268 -1.979160 -43.214905 1.240406 -4.966567 -36.831243 -20.064675 7.351731 0.000000 0.000000 0.000000 11.074022 -8.779818 -5.025030 45.945603 -7.103841 -6.392880 57.259877 16.736559 8.517937 0.000000 0.000000 0.000000 
-0.004791 0.946068 -0.000673 -1.811063 -2.310617 6.830408 3.937786 -0.181529 -1.551347 4.845992 -0.249793 -3.717085 9.579430 19.581916 18.391360 0.000000 0.000000 0.000000 1.001645 0.608849 -5.997561 -5.943712 0.287557 -3.365233 7.612826 9.448588 12.361816 0.000000 0.000000 0.000000 4.919128 0.574365 -8.220780 -0.785760 0.398303 -2.276737 -7.944026 -1.600926 -0.840946 9.982324 -7.930039 0.489484 0.000000 0.000000 0.000000 -15.917471 -0.307233 -1.368855 -44.199383 1.665692 -5.280694 -35.105274 -20.038202 7.100785 0.000000 0.000000 0.000000 10.388766 -8.443241 -4.846656 45.567402 -8.118602 -6.696428 58.038413 16.739951 8.405771 0.000000 0.000000 0.000000 
-0.003986 0.946132 -0.001030 -1.909858 -2.622183 6.853173 3.877063 -0.180179 -1.571784 4.974278 -0.267799 -3.641260 9.769924 19.812465 18.485210 0.000000 0.000000 0.000000 1.013631 0.643302 -6.315684 -5.903842 0.319488 -2.954490 7.746820 9.663419 12.373548 0.000000 0.000000 0.000000 5.084134 0.571688 -8.070021 -0.727135 0.369587 -2.199386 -8.228848 -2.259286 -0.732435 9.980240 -7.888876 0.379690 0.000000 0.000000 0.000000 -16.090715 -0.849522 -0.957699 -45.095696 1.443181 -5.355869 -33.288204 -18.808429 6.380349 0.000000 0.000000 0.000000 9.973181 -8.586157 -4.898144 44.752390 -9.293753 -6.974378 58.346706 16.298023 8.002191 0.000000 0.000000 0.000000 
-0.003002 0.946152 -0.001724 -1.868428 -2.975871 6.760436 3.565149 -0.164221 -1.396633 5.244694 -0.284085 -3.731033 9.955318 20.030102 18.635214 0.000000 0.000000 0.000000 0.764553 0.645641 -6.372563 -5.694095 0.310289 -2.848262 7.920460 9.918202 12.430568 0.000000 0.000000 0.000000 5.025518 0.538069 -7.669193 -0.567993 0.300011 -2.492794 -8.460737 -2.690975 -0.461055 10.000779 -7.903884 0.373606 0.000000 0.000000 0.000000 -16.062970 -1.567355 -0.462327 -46.014238 1.410032 -5.507774 -31.973793 -17.993965 5.912990 0.000000 0.000000 0.000000 9.239999 -8.361962 -4.701080 43.765093 -10.319716 -7.166608 58.511794 16.289855 7.881856 0.000000 0.000000 0.000000 
